<?xml version="1.0" encoding="UTF-8"?>
<svg id="Capa_1" data-name="Capa 1" xmlns="http://www.w3.org/2000/svg" viewBox="0 0 3267.26 1080">
  <defs>
    <style>
      .cls-1 {
        letter-spacing: -.01em;
      }

      .cls-2 {
        font-family: AlverataInformalW01-Bold, AlverataInformalW01-Bold;
        font-size: 349.23px;
        font-weight: 700;
      }

      .cls-2, .cls-3 {
        fill: #fff;
      }

      .cls-3 {
        stroke-width: 0px;
      }
    </style>
  </defs>
  <path class="cls-3" d="M941.56,791.11c-2.59-6.98-4.53-18.59-5.82-34.85-.91-11.47-1.62-26.68-2.14-45.59-.23-7.91-.41-16.47-.57-25.7-.11-6.16-.2-12.81-.29-19.95h-.09c-.21-23.36-.34-51.41-.38-84.15h-460.98c-.05,27.62-.18,51.75-.37,72.36-.04,4.03-.08,7.95-.12,11.8h-.11c-.23,17.34-.54,32.57-.89,45.65-.02.48-.02.95-.04,1.43-.52,18.34-1.28,32.92-2.32,43.77-1.05,10.83-2.21,19.75-3.5,26.73-1.28,6.96-2.96,12.53-5.03,16.65-2.07,4.14-4.39,8.78-6.96,13.94l-6.98,13.19c5.67,0,13.17-.29,22.47-.79,7.74,0,17.54-.12,29.44-.39,11.87-.25,26.07-.37,42.59-.37s30.6.12,42.22.37c11.62.27,21.31.39,29.05.39,9.3.5,16.79.79,22.47.79l-6.96-13.19c-4.14-7.23-7.37-14.06-9.69-20.52-2.32-6.46-4.26-16.92-5.82-31.37-1.34-12.4-2.28-29.28-2.84-50.62-.09-3.53-.18-7.19-.25-10.97-.2-10.06-.36-21.61-.48-34.67h-.08c-.16-19.5-.22-42.02-.22-67.58h189.81c0,25.56-.08,48.08-.23,67.58h-.07c-.12,13.06-.29,24.61-.48,34.67-.07,3.78-.16,7.44-.25,10.97-.57,21.34-1.52,38.22-2.84,50.62-1.55,14.45-3.62,25.05-6.21,31.76-2.59,6.71-5.67,13.42-9.3,20.13l-6.96,13.19c5.67,0,13.17-.29,22.47-.79,7.74,0,17.54-.12,29.43-.39,11.88-.25,26.07-.37,42.61-.37s30.6.12,42.22.37c11.62.27,21.31.39,29.05.39,9.3.5,16.77.79,22.47.79l-6.98-13.19c-4.14-7.74-7.49-15.1-10.06-22.07Z"/>
  <path class="cls-3" d="M462.03,288.87c2.57,6.98,4.51,18.59,5.82,34.87.89,11.47,1.61,26.66,2.14,45.57.23,7.92.41,16.49.57,25.7.11,6.16.2,12.81.27,19.95h.08c.24,23.41.37,51.6.41,84.6h460.98c.05-27.05.18-50.73.37-71.02.05-4.66.09-9.18.14-13.58h.09c.23-17.34.54-32.57.89-45.65,0-.46.02-.95.04-1.41.5-18.33,1.28-32.94,2.32-43.77,1.04-10.85,2.19-19.75,3.5-26.73,1.27-6.98,2.96-12.65,5.03-17.04,2.05-4.39,4.37-8.92,6.96-13.56l6.98-13.17c-4.64.52-11.37.79-20.15.79-7.23.52-16.92.77-29.05.77h-87.92c-11.88,0-21.7-.25-29.44-.77-9.3,0-16.52-.27-21.68-.79l6.96,13.17c2.59,4.64,4.91,9.05,6.98,13.17,2.05,4.14,3.75,9.05,5.03,14.72,1.28,5.69,2.44,12.92,3.5,21.7,1.02,8.78,1.8,20.27,2.32,34.48.2,5.64.37,11.8.54,18.45.25,10.1.46,21.38.62,33.83.05,3.78.09,7.73.12,11.81h.06c.14,16.51.2,35.24.2,56.19h-189.81c0-20.88.08-39.61.24-56.19h.08c.21-15.7.5-29.3.84-40.86.05-1.62.11-3.21.14-4.78.79-22.75,1.91-40.51,3.35-53.32,1.55-13.69,3.48-23.63,5.8-29.84,2.34-6.19,5.3-12.65,8.92-19.36l6.96-13.17c-4.64.52-11.37.79-20.13.79-7.24.52-16.93.77-29.05.77h-87.94c-11.88,0-21.7-.25-29.44-.77-9.28,0-16.52-.27-21.68-.79l6.98,13.17c4.12,7.74,7.48,15.11,10.06,22.07Z"/>
  <path class="cls-3" d="M1065.46,497.05c-1.09.61-3.53,1.89-7.32,3.85-3.8,1.96-11.12,4.59-21.95,7.91-9.76,3.32-22.36,5.57-37.81,6.78-15.45,1.2-62.44,1.8-81.41,1.8h3.34c-.02,8.76-.02,17.9-.02,27.37,0,6.25,0,12.33.02,18.27h-3.34c18.97,0,65.96.61,81.41,1.8,15.45,1.21,28.05,3.46,37.81,6.78,11.37,3.91,18.97,6.85,22.75,8.82,3.78,1.96,5.96,3.09,6.51,3.39,0-.61-.41-4.3-1.23-11.08-.8-6.78-1.21-17.4-1.21-31.85,0-15.36.41-26.45,1.21-33.23.82-6.76,1.23-10.31,1.23-10.62Z"/>
  <path class="cls-3" d="M1083.34,380.01h-131.75c-.36,13.08-.66,28.3-.89,45.65h15.56c39.03,0,68.83,3.32,89.44,9.94,11.38,3.93,18.83,6.85,22.36,8.82,3.52,1.96,5.55,3.09,6.1,3.39,0-.61-.29-3.77-.82-9.49-.54-5.71-.8-14.45-.8-26.21v-24.39c0-3.32.27-5.87.8-7.69Z"/>
  <path class="cls-3" d="M625.76,384.79c-.28,11.56-.51,25.16-.68,40.86h153.49c-.03-4.09-.06-8.03-.1-11.81-.13-12.46-.3-23.73-.51-33.83h-152.08c-.03,1.57-.07,3.16-.12,4.78Z"/>
  <path class="cls-3" d="M778.17,690.79c.16-10.06.29-21.61.39-34.67h-153.53c.1,13.06.23,24.61.39,34.67.06,3.78.13,7.44.2,10.97h152.35c.07-3.53.14-7.19.2-10.97Z"/>
  <path class="cls-3" d="M471.31,517.39c.02,6.37.02,12.9.02,19.63,0,8.99,0,17.67-.02,26.02h460.98c-.02-5.94-.02-12.03-.02-18.27,0-9.48,0-18.61.02-27.37h-460.98Z"/>
  <path class="cls-3" d="M452.86,656.11h-16.47v-93.08h38.07c.02-8.35.02-17.02.02-26.02,0-6.73,0-13.26-.02-19.63h-38.07v-91.74h16.6c-.07-7.14-.16-13.79-.27-19.95-.16-9.21-.34-17.77-.57-25.7h-107.78c-5.96,0-10.85-.14-14.63-.45l7.32,7.67c4.34,4.53,7.85,8.82,10.56,12.88,2.71,4.07,4.75,10.85,6.1,20.34,1.36,9.49,2.3,23.34,2.86,41.58.52,18.22.8,43.75.8,76.59,0,22.59-.14,41.74-.41,57.39-.27,15.67-.68,28.85-1.21,39.54-.55,10.71-1.36,19.2-2.44,25.54-1.09,6.33-2.3,11.53-3.66,15.6-1.36,4.07-3.12,7.39-5.28,9.94-2.18,2.57-4.6,5.19-7.32,7.91l-7.32,7.69h14.63c4.87,0,11.38-.09,19.52-.23,8.12-.16,17.59-.23,28.44-.23h59.64c.36-13.08.66-28.3.89-45.65Z"/>
  <path class="cls-3" d="M1083.34,701.19h-131.75c-.36-13.08-.66-28.3-.89-45.65h15.56c39.03,0,68.83-3.32,89.44-9.94,11.38-3.93,18.83-6.85,22.36-8.82,3.52-1.96,5.55-3.09,6.1-3.39,0,.61-.29,3.77-.82,9.49-.54,5.71-.8,14.45-.8,26.21v24.39c0,3.32.27,5.87.8,7.69Z"/>
  <text class="cls-2" transform="translate(1207.09 659.35)"><tspan x="0" y="0">HER</tspan><tspan class="cls-1" x="698.11" y="0">A</tspan><tspan x="938.74" y="0">CLES</tspan></text>
</svg>